# File created by Blade
# Date/Time:  Mon Sep 29 17:58:21 2014
# Frame Rate: 120.000 fps
#------------------------------------------------------
:FULLY-SPECIFIED
:DEGREES
3068
root -0.075723 6.461723 -6.353440 -8.238646 -16.912801 -12.478792
Spine 45.217948 20.652229 2.024208
Head -22.951956 6.655176 4.478381
LeftShoulder -2.747976 11.674868 5.600090
LeftArm 28.645662 31.345324 -64.398558
LeftForeArm -3.207708 -0.000000 15.926344
LeftHand -48.843728 -0.000000 98.631208
LeftHandThumb1 -26.253704 0.000000 33.147579
RightShoulder 0.325114 30.141201 -30.838269
RightArm 16.510107 -34.674612 45.457737
RightForeArm -11.280551 -0.000000 40.736992
RightHand -4.770951 -0.000000 15.771854
RightHandThumb1 -24.326973 -0.000000 -32.862282
LeftUpLeg -85.038658 10.899175 1.232373
LeftLeg 22.687100 -0.000000 -0.000000
LeftFoot 26.316415 15.136479 -10.339963
LeftToeBase 12.701469 -0.000000 -0.000000
RightUpLeg -107.268339 6.662875 23.576253
RightLeg 144.034125 -0.000000 -0.000000
RightFoot -28.701740 -9.601333 8.134388
RightToeBase 3.337638 -0.000000 -0.000000
3069
root -0.156759 6.594127 -6.205520 -8.644114 -16.359133 -12.322260
Spine 45.208944 21.012429 1.136031
Head -22.905310 6.212301 5.822327
LeftShoulder -2.759426 11.843463 5.651915
LeftArm 28.776437 31.151016 -63.400684
LeftForeArm -3.016906 -0.000000 15.941294
LeftHand -48.845929 -0.000000 98.564704
LeftHandThumb1 -26.253704 0.000000 33.147579
RightShoulder 0.188945 29.930521 -30.273980
RightArm 16.500204 -34.517623 45.281329
RightForeArm -11.302418 -0.000000 41.004788
RightHand -4.777852 -0.000000 15.567462
RightHandThumb1 -24.326973 -0.000000 -32.862282
LeftUpLeg -85.117971 10.451311 1.169622
LeftLeg 24.443432 -0.000000 -0.000000
LeftFoot 25.050187 14.896044 -10.281768
LeftToeBase 12.587521 -0.000000 -0.000000
RightUpLeg -106.072735 6.121916 23.732076
RightLeg 144.328673 -0.000000 -0.000000
RightFoot -29.579198 -9.853287 8.127930
RightToeBase 3.013981 -0.000000 -0.000000
3070
root -0.249902 6.733950 -6.055461 -9.054801 -15.880399 -12.250139
Spine 45.201235 21.504633 0.357112
Head -22.734012 5.728882 7.237957
LeftShoulder -2.736890 11.984803 5.704795
LeftArm 28.822494 30.894217 -62.432487
LeftForeArm -2.715081 -0.000000 16.003368
LeftHand -48.862251 -0.000000 98.604929
LeftHandThumb1 -26.253704 0.000000 33.147579
RightShoulder 0.144037 29.709151 -29.630913
RightArm 16.264912 -34.236400 45.258876
RightForeArm -11.398981 -0.000000 41.122894
RightHand -4.432754 -0.000000 15.490448
RightHandThumb1 -24.326973 -0.000000 -32.862282
LeftUpLeg -85.286935 10.143502 1.034456
LeftLeg 26.463906 -0.000000 -0.000000
LeftFoot 23.652737 14.633299 -10.406580
LeftToeBase 11.815171 -0.000000 -0.000000
RightUpLeg -104.748078 5.632650 24.021115
RightLeg 144.571588 -0.000000 -0.000000
RightFoot -30.497795 -10.201424 8.138406
RightToeBase 2.797469 -0.000000 -0.000000
3071
root -0.338522 6.871999 -5.898625 -9.546669 -15.276741 -12.205086
Spine 45.305222 21.782565 -0.404681
Head -22.650747 5.310270 8.529499
LeftShoulder -2.798564 12.185287 5.732243
LeftArm 28.913561 30.605001 -61.477036
LeftForeArm -2.424524 -0.000000 16.104722
LeftHand -48.944297 0.000000 98.614112
LeftHandThumb1 -26.253704 0.000000 33.147579
RightShoulder 0.060065 29.502335 -29.038852
RightArm 16.234106 -34.175292 45.044338
RightForeArm -11.401919 -0.000000 41.137313
RightHand -4.453718 -0.000000 15.332722
RightHandThumb1 -24.326973 -0.000000 -32.862282
LeftUpLeg -85.485958 9.738963 0.834394
LeftLeg 28.752228 -0.000000 -0.000000
LeftFoot 22.302945 14.416646 -10.694059
LeftToeBase 11.214471 -0.000000 -0.000000
RightUpLeg -103.404049 4.979819 24.417094
RightLeg 144.839023 -0.000000 -0.000000
RightFoot -31.291043 -10.825936 8.059375
RightToeBase 1.903311 -0.000000 -0.000000
3072
root -0.429685 7.010891 -5.732829 -10.078518 -14.623414 -12.152535
Spine 45.385267 22.093194 -1.174239
Head -22.394550 4.864203 9.945999
LeftShoulder -2.747331 12.403778 5.868737
LeftArm 28.892057 30.175774 -60.706758
LeftForeArm -2.020030 -0.000000 16.157833
LeftHand -48.875391 0.000000 98.700493
LeftHandThumb1 -26.253704 0.000000 33.147579
RightShoulder 0.033322 29.469478 -28.389106
RightArm 15.939430 -34.274325 45.004024
RightForeArm -11.387069 -0.000000 40.923080
RightHand -4.331666 -0.000000 15.351446
RightHandThumb1 -24.326973 -0.000000 -32.862282
LeftUpLeg -85.691655 9.284838 0.714150
LeftLeg 31.241469 -0.000000 -0.000000
LeftFoot 21.156416 14.175935 -11.284705
LeftToeBase 10.543029 -0.000000 -0.000000
RightUpLeg -102.041271 4.195831 24.725036
RightLeg 145.175267 -0.000000 -0.000000
RightFoot -32.044697 -11.166308 7.993475
RightToeBase 0.870756 -0.000000 -0.000000
3073
root -0.529223 7.145742 -5.559961 -10.588183 -13.981887 -12.199164
Spine 45.359383 22.278005 -1.898042
Head -21.990299 4.444335 11.139973
LeftShoulder -2.766833 12.745736 5.938584
LeftArm 28.803310 29.615163 -60.016600
LeftForeArm -1.536937 0.000000 16.226446
LeftHand -48.805401 0.000000 98.738220
LeftHandThumb1 -26.253704 0.000000 33.147579
RightShoulder 0.165287 29.390140 -27.713380
RightArm 15.620360 -34.227973 45.061067
RightForeArm -11.212364 -0.000000 40.649511
RightHand -4.415769 -0.000000 15.598744
RightHandThumb1 -24.326973 -0.000000 -32.862282
LeftUpLeg -85.994363 8.858570 0.676710
LeftLeg 33.932305 -0.000000 -0.000000
LeftFoot 20.296787 13.804621 -11.671641
LeftToeBase 10.076993 -0.000000 -0.000000
RightUpLeg -100.714378 3.454263 25.007028
RightLeg 145.557287 -0.000000 -0.000000
RightFoot -33.003473 -10.997084 8.580163
RightToeBase 0.752999 -0.000000 -0.000000
3074
root -0.624246 7.273475 -5.383075 -11.075709 -13.319940 -12.167441
Spine 45.258243 22.556835 -2.743066
Head -21.592732 4.012205 12.572681
LeftShoulder -2.727119 13.045126 6.188916
LeftArm 28.692572 29.078490 -59.465087
LeftForeArm -1.055450 -0.000000 16.166441
LeftHand -48.798324 -0.000000 98.877951
LeftHandThumb1 -26.253704 0.000000 33.147579
RightShoulder 0.183598 29.070612 -26.987776
RightArm 15.569602 -34.202559 44.967111
RightForeArm -11.342111 -0.000000 40.184997
RightHand -4.157715 -0.000000 15.742514
RightHandThumb1 -24.326973 -0.000000 -32.862282
LeftUpLeg -86.419234 8.413459 0.539287
LeftLeg 36.800806 -0.000000 -0.000000
LeftFoot 19.477219 13.494166 -11.911979
LeftToeBase 8.859770 -0.000000 -0.000000
RightUpLeg -99.520055 2.688024 25.215172
RightLeg 145.975876 -0.000000 -0.000000
RightFoot -33.542889 -11.014366 8.739470
RightToeBase -0.303597 -0.000000 0.000000
3075
root -0.722784 7.405023 -5.205201 -11.503311 -12.635757 -12.183175
Spine 45.048982 22.797804 -3.588694
Head -21.108261 3.558184 14.002050
LeftShoulder -2.676634 13.611995 6.418541
LeftArm 28.807642 28.388556 -58.807179
LeftForeArm -0.625549 -0.000000 16.025445
LeftHand -48.766457 0.000000 98.984146
LeftHandThumb1 -26.253704 0.000000 33.147579
RightShoulder 0.264372 28.877099 -26.157979
RightArm 15.440688 -34.369457 44.827062
RightForeArm -11.203024 -0.000000 39.606472
RightHand -4.008403 -0.000000 15.819725
RightHandThumb1 -24.326973 -0.000000 -32.862282
LeftUpLeg -86.934679 8.001365 0.376102
LeftLeg 39.719314 -0.000000 -0.000000
LeftFoot 18.735148 13.018597 -12.318764
LeftToeBase 7.718179 -0.000000 -0.000000
RightUpLeg -98.365926 1.930042 25.494934
RightLeg 146.386799 -0.000000 -0.000000
RightFoot -34.138256 -11.082944 9.084325
RightToeBase -0.955540 -0.000000 0.000000
3076
root -0.827003 7.536955 -5.019399 -11.972132 -11.943986 -12.271891
Spine 44.904528 22.995271 -4.359285
Head -20.754501 3.081491 15.412442
LeftShoulder -2.670414 13.729015 6.725984
LeftArm 28.533357 27.984559 -58.416995
LeftForeArm -0.169598 -0.000000 15.799802
LeftHand -48.765434 0.000000 98.971565
LeftHandThumb1 -26.253704 0.000000 33.147579
RightShoulder 0.287968 28.655756 -25.386285
RightArm 15.371264 -34.485121 44.784634
RightForeArm -11.350293 -0.000000 38.989217
RightHand -3.906828 0.000000 15.925921
RightHandThumb1 -24.326973 -0.000000 -32.862282
LeftUpLeg -87.432687 7.589624 0.283134
LeftLeg 42.732726 -0.000000 -0.000000
LeftFoot 17.694676 12.415521 -12.896847
LeftToeBase 6.872771 -0.000000 -0.000000
RightUpLeg -97.167902 1.187291 25.788911
RightLeg 146.818626 -0.000000 -0.000000
RightFoot -34.604805 -11.073277 9.521358
RightToeBase -1.767392 -0.000000 0.000000
3077
root -0.923579 7.667582 -4.831744 -12.429029 -11.265624 -12.308449
Spine 44.741588 23.221044 -5.160334
Head -20.408840 2.662800 16.780780
LeftShoulder -2.646226 13.826632 7.047691
LeftArm 28.285274 27.662804 -57.987984
LeftForeArm 0.186992 0.000000 15.526684
LeftHand -48.803865 -0.000000 98.854668
LeftHandThumb1 -26.253704 0.000000 33.147579
RightShoulder 0.293255 28.387295 -24.623397
RightArm 15.321367 -34.633097 44.709904
RightForeArm -11.472801 -0.000000 38.341000
RightHand -3.746414 0.000000 15.956090
RightHandThumb1 -24.326973 -0.000000 -32.862282
LeftUpLeg -87.972196 7.201846 0.167978
LeftLeg 45.782498 -0.000000 -0.000000
LeftFoot 16.501228 11.697154 -13.252653
LeftToeBase 5.493220 -0.000000 -0.000000
RightUpLeg -96.136815 0.423399 25.972648
RightLeg 147.288863 -0.000000 -0.000000
RightFoot -34.647614 -10.924089 9.887802
RightToeBase -2.657267 -0.000000 0.000000
3078
root -1.019946 7.798574 -4.642983 -12.875380 -10.611808 -12.351191
Spine 44.568643 23.472855 -5.951259
Head -20.127798 2.304886 18.166440
LeftShoulder -2.596943 13.871279 7.415034
LeftArm 27.971333 27.377936 -57.612109
LeftForeArm 0.514990 -0.000000 15.248512
LeftHand -48.881008 -0.000000 98.706535
LeftHandThumb1 -26.253704 0.000000 33.147579
RightShoulder 0.319794 28.110736 -23.829104
RightArm 15.215101 -34.742321 44.626255
RightForeArm -11.507340 0.000000 37.761969
RightHand -3.672097 -0.000000 16.155116
RightHandThumb1 -24.326973 -0.000000 -32.862282
LeftUpLeg -88.503592 6.858437 0.144733
LeftLeg 48.801186 -0.000000 -0.000000
LeftFoot 14.941621 11.023548 -14.039032
LeftToeBase 4.552848 -0.000000 -0.000000
RightUpLeg -95.203007 -0.435009 26.247341
RightLeg 147.746425 -0.000000 -0.000000
RightFoot -34.339201 -10.996467 9.961871
RightToeBase -4.850055 -0.000000 0.000000
3079
root -1.118066 7.927769 -4.447457 -13.329667 -9.975578 -12.445604
Spine 44.386299 23.653377 -6.670135
Head -19.811410 2.025459 19.395117
LeftShoulder -2.597565 14.019612 7.705346
LeftArm 27.730009 27.183605 -57.098991
LeftForeArm 0.739318 0.000000 15.008315
LeftHand -48.971134 -0.000000 98.481004
LeftHandThumb1 -26.253704 0.000000 33.147579
RightShoulder 0.385130 27.857491 -23.097565
RightArm 15.082352 -34.928441 44.606076
RightForeArm -11.677536 0.000000 37.148082
RightHand -3.432575 -0.000000 16.171974
RightHandThumb1 -24.326973 -0.000000 -32.862282
LeftUpLeg -89.080083 6.570752 0.048158
LeftLeg 51.877816 -0.000000 -0.000000
LeftFoot 13.669257 10.231911 -13.911063
LeftToeBase 2.614653 -0.000000 -0.000000
RightUpLeg -94.333945 -1.366352 26.347364
RightLeg 148.274490 -0.000000 -0.000000
RightFoot -33.606949 -10.789093 9.492913
RightToeBase -6.801460 -0.000000 0.000000
